<svg x="0px" y="0px" viewBox="0 0 100 125" style="enable-background:new 0 0 100 100;" xml:space="preserve"><path d="M94.4,51.4l-12,12C82,63.8,81.5,64,81,64s-1-0.2-1.4-0.6c-0.8-0.8-0.8-2,0-2.8l8.6-8.6H7c-1.1,0-2-0.9-2-2s0.9-2,2-2h81.2  l-8.6-8.6c-0.8-0.8-0.8-2,0-2.8c0.8-0.8,2-0.8,2.8,0l12,12c0.1,0.1,0.2,0.2,0.3,0.3c0,0,0.1,0.1,0.1,0.2c0,0.1,0.1,0.1,0.1,0.2  c0,0.1,0,0.1,0.1,0.2c0,0.1,0,0.1,0.1,0.2c0.1,0.3,0.1,0.5,0,0.8c0,0.1,0,0.1-0.1,0.2c0,0.1,0,0.1-0.1,0.2c0,0.1-0.1,0.1-0.1,0.2  c0,0.1-0.1,0.1-0.1,0.2C94.6,51.2,94.5,51.3,94.4,51.4z"/></svg>