<svg x="0px" y="0px" viewBox="0 0 100 125" style="enable-background:new 0 0 100 100;" xml:space="preserve"><g><ellipse cx="25.264" cy="43.477" rx="2.015" ry="2.106"/><path d="M73.943,36.395c-0.655-0.889-1.906-1.077-2.797-0.424c-0.889,0.655-1.079,1.907-0.424,2.797   c0.575,0.78,1.093,1.602,1.54,2.442c0.359,0.677,1.052,1.062,1.768,1.062c0.316,0,0.637-0.075,0.937-0.233   c0.975-0.519,1.346-1.729,0.828-2.705C75.256,38.32,74.633,37.332,73.943,36.395z"/><path d="M70.22,32.368c-1.927-1.679-4.109-3.085-6.487-4.18c-1.005-0.464-2.191-0.024-2.653,0.979   c-0.462,1.003-0.023,2.191,0.979,2.653c2.032,0.937,3.894,2.135,5.534,3.563c0.379,0.33,0.847,0.492,1.313,0.492   c0.559,0,1.114-0.232,1.509-0.687C71.14,34.356,71.053,33.093,70.22,32.368z"/><path d="M80.486,75.875h-5.861c-1.104,0-2,0.896-2,2s0.896,2,2,2h5.861c1.104,0,2-0.896,2-2S81.59,75.875,80.486,75.875z"/><path d="M87.315,53.134h-3.593c0.393-4.494-0.26-9.091-1.944-13.429c-5.446-14.008-21.085-22.128-36.379-18.889   c-4.296,0.912-8.471,2.773-12.209,5.41c-2.084-1.465-4.417-2.122-6.645-1.836c-2.193,0.28-4.17,1.457-5.569,3.313   c-1.678,2.226-1.799,5.601-0.369,8.711c-0.597,0.503-1.212,1.001-1.854,1.51c-1.04,0.823-2.115,1.675-3.136,2.621   c-2.606,2.412-4.819,5.032-6.822,7.505c-0.188,0.232-0.311,0.494-0.38,0.766C6.484,49.144,5,50.887,5,52.997   c0,2.356,1.826,4.251,4.068,4.251c0.363,0,0.709-0.065,1.044-0.159c0.134,0.028,0.273,0.044,0.415,0.044h55.374h17.244h4.17   c2.032,0,3.685,1.653,3.685,3.686c0,2.031-1.653,3.685-3.685,3.685H62.269c-4.238,0-7.685,3.447-7.685,7.686   s3.447,7.686,7.685,7.686h7.356c1.104,0,2-0.896,2-2s-0.896-2-2-2h-7.356c-2.032,0-3.685-1.653-3.685-3.686   s1.653-3.686,3.685-3.686h25.046c4.238,0,7.685-3.447,7.685-7.685C95,56.581,91.553,53.134,87.315,53.134z M65.901,53.134H13.124   c0.001-0.047,0.013-0.09,0.013-0.137c0-1.047-0.379-1.995-0.982-2.737c1.844-2.266,3.862-4.635,6.18-6.78   c0.909-0.842,1.877-1.609,2.903-2.422c1.128-0.894,2.294-1.817,3.391-2.86c0.8-0.762,0.832-2.027,0.071-2.828   c-0.096-0.101-0.2-0.19-0.31-0.266c-0.013-0.028-0.019-0.058-0.033-0.086c-0.922-1.812-0.999-3.829-0.185-4.907   c0.755-1.002,1.752-1.608,2.882-1.753c1.031-0.134,2.15,0.131,3.232,0.747c-1.086,1.383-1.871,3.099-1.982,4.615   c-0.081,1.102,0.747,2.061,1.848,2.142c1.109,0.059,2.06-0.748,2.141-1.849c0.085-1.156,1.285-2.992,2.292-3.508   c1.107-0.565,2.368-0.014,3.178,0.692c1.009,0.88,1.962,2.547,1.331,4.346c-0.188,0.536-0.43,0.77-1.103,1.367   c-0.17,0.151-0.347,0.309-0.529,0.479c-0.807,0.755-0.849,2.021-0.095,2.827c0.394,0.421,0.927,0.634,1.461,0.634   c0.489,0,0.98-0.179,1.366-0.539c0.156-0.146,0.307-0.28,0.452-0.409c0.788-0.699,1.681-1.492,2.222-3.033   c1.064-3.034,0.093-6.443-2.476-8.685c-0.405-0.353-0.834-0.641-1.272-0.898c2.265-1.169,4.639-2.032,7.11-2.556   c13.391-2.839,27.077,4.224,31.82,16.424c1.504,3.877,2.072,7.985,1.665,11.98H65.901z"/></g></svg>