<?xml version="1.0" encoding="utf-8"?>
<!-- Generator: Adobe Illustrator 24.0.0, SVG Export Plug-In . SVG Version: 6.00 Build 0)  -->
<svg version="1.1" id="Layer_1" xmlns="http://www.w3.org/2000/svg" xmlns:xlink="http://www.w3.org/1999/xlink" x="0px" y="0px"
	 viewBox="0 0 421.8 108.3" style="enable-background:new 0 0 421.8 108.3;" xml:space="preserve">
<style type="text/css">
	.st0{fill:#FFFFFF;}
</style>
<path id="txt2" class="st0" d="M148,78.3h4.2L146,97.1h-4.7l-4.1-12.7l-4.3,12.7h-4.6l-6.2-18.8h4.5l4.2,13.2l4.4-13.2h4l4.3,13.3
	L148,78.3z M158.8,89.3h8.7v-3.4h-8.7v-4.1h9.9v-3.5h-14.2v18.8H169v-3.5h-10.2V89.3z M188.8,89c0.6,0.8,0.9,1.8,0.9,2.9
	c0,1.6-0.6,2.9-1.9,3.8c-1.3,0.9-3.1,1.3-5.6,1.3h-9.7V78.3h9.2c2.3,0,4,0.4,5.3,1.3c1.2,0.9,1.8,2.1,1.8,3.6c0,0.9-0.2,1.7-0.7,2.4
	c-0.4,0.7-1,1.3-1.8,1.7C187.4,87.7,188.2,88.2,188.8,89z M176.8,86h4.3c1.1,0,1.9-0.2,2.4-0.6c0.6-0.4,0.8-0.9,0.8-1.7
	c0-0.7-0.3-1.3-0.8-1.6c-0.6-0.4-1.4-0.6-2.4-0.6h-4.3V86z M185.4,91.5c0-1.6-1.2-2.3-3.5-2.3h-5.1v4.6h5.1c1.1,0,2-0.2,2.6-0.6
	C185.1,92.9,185.4,92.3,185.4,91.5z M218.2,82.8c0.9,1.4,1.3,3.1,1.3,4.9c0,1.9-0.4,3.5-1.3,4.9c-0.9,1.4-2.1,2.5-3.6,3.3
	c-1.6,0.8-3.4,1.2-5.4,1.2h-8.5V78.3h8.5c2,0,3.8,0.4,5.4,1.2C216.1,80.3,217.3,81.4,218.2,82.8z M215.1,87.7c0-1.8-0.6-3.2-1.7-4.3
	c-1.1-1-2.6-1.6-4.5-1.6h-4v11.6h4c1.9,0,3.4-0.5,4.5-1.6C214.5,90.9,215.1,89.5,215.1,87.7z M227.1,89.3h8.7v-3.4h-8.7v-4.1h9.9
	v-3.5h-14.2v18.8h14.5v-3.5h-10.2V89.3z M251.5,87c-0.9-0.3-2.1-0.7-3.5-1s-2.4-0.6-3.1-0.9c-0.7-0.3-1-0.8-1-1.4s0.3-1.2,0.9-1.6
	c0.6-0.4,1.5-0.6,2.7-0.6c1.7,0,3.5,0.5,5.2,1.5l1.3-3.3c-0.9-0.5-1.9-0.9-3-1.2c-1.1-0.3-2.3-0.4-3.5-0.4c-1.7,0-3.2,0.3-4.4,0.8
	s-2.1,1.2-2.7,2.1c-0.6,0.9-0.9,1.9-0.9,3c0,1.2,0.3,2.3,1,3c0.7,0.8,1.4,1.3,2.3,1.6s2.1,0.7,3.5,1c0.9,0.2,1.7,0.4,2.2,0.6
	s1,0.4,1.3,0.7c0.3,0.3,0.5,0.7,0.5,1.1c0,0.6-0.3,1.1-0.9,1.5c-0.6,0.4-1.5,0.5-2.7,0.5c-1.1,0-2.2-0.2-3.3-0.5
	c-1.1-0.4-2.1-0.8-2.9-1.4l-1.5,3.3c0.8,0.6,2,1.2,3.3,1.6c1.4,0.4,2.8,0.6,4.3,0.6c1.7,0,3.2-0.3,4.4-0.8s2.1-1.2,2.7-2.1
	c0.6-0.9,0.9-1.9,0.9-2.9c0-1.3-0.3-2.2-1-3S252.5,87.4,251.5,87z M257.8,97.1h4.3V78.3h-4.3V97.1z M272.8,82.5
	c0.9-0.5,2-0.8,3.2-0.8c1.9,0,3.5,0.7,4.9,2.1l2.8-2.6c-0.9-1.1-2-1.9-3.4-2.4c-1.3-0.6-2.8-0.8-4.5-0.8c-2,0-3.7,0.4-5.3,1.2
	c-1.6,0.8-2.8,2-3.7,3.5c-0.9,1.5-1.3,3.1-1.3,5s0.4,3.5,1.3,5s2.1,2.6,3.7,3.5c1.6,0.8,3.3,1.2,5.3,1.2c1.4,0,2.7-0.2,4-0.6
	s2.5-1,3.5-1.8v-7.6h-4v5.5c-1,0.5-2.1,0.8-3.4,0.8c-1.2,0-2.2-0.3-3.2-0.8c-0.9-0.5-1.6-1.2-2.2-2.1c-0.5-0.9-0.8-1.9-0.8-3.1
	s0.3-2.2,0.8-3.1C271.1,83.7,271.9,83,272.8,82.5z M300.2,89.7l-9.3-11.4h-3.6v18.8h4.3V85.7l9.4,11.4h3.6V78.3h-4.3v11.4H300.2z
	 M327.4,87c-0.9-0.3-2.1-0.7-3.5-1s-2.4-0.6-3.1-0.9s-1-0.8-1-1.4s0.3-1.2,0.9-1.6s1.5-0.6,2.7-0.6c1.7,0,3.5,0.5,5.2,1.5l1.3-3.3
	c-0.9-0.5-1.9-0.9-3-1.2c-1.1-0.3-2.3-0.4-3.5-0.4c-1.7,0-3.2,0.3-4.4,0.8c-1.2,0.5-2.1,1.2-2.7,2.1s-0.9,1.9-0.9,3
	c0,1.2,0.3,2.3,1,3c0.7,0.8,1.4,1.3,2.3,1.6c0.9,0.3,2.1,0.7,3.5,1c0.9,0.2,1.7,0.4,2.2,0.6s1,0.4,1.3,0.7c0.3,0.3,0.5,0.7,0.5,1.1
	c0,0.6-0.3,1.1-0.9,1.5s-1.5,0.5-2.7,0.5c-1.1,0-2.2-0.2-3.3-0.5c-1.1-0.4-2.1-0.8-2.9-1.4l-1.5,3.3c0.8,0.6,2,1.2,3.3,1.6
	c1.4,0.4,2.8,0.6,4.3,0.6c1.7,0,3.2-0.3,4.4-0.8c1.2-0.5,2.1-1.2,2.7-2.1s0.9-1.9,0.9-2.9c0-1.3-0.3-2.2-1-3S328.3,87.4,327.4,87z
	 M331.3,81.9h6v15.2h4.3V81.9h6v-3.5h-16.4v3.5H331.3z M362.2,88.7c0,1.7-0.4,3-1.1,3.8s-1.8,1.2-3.1,1.2c-2.8,0-4.2-1.7-4.2-5V78.3
	h-4.3v10.5c0,2.8,0.7,4.9,2.2,6.4s3.6,2.2,6.3,2.2c2.7,0,4.8-0.7,6.3-2.2s2.2-3.6,2.2-6.4V78.3h-4.3V88.7z M388.3,82.8
	c0.9,1.4,1.3,3.1,1.3,4.9c0,1.9-0.4,3.5-1.3,4.9s-2.1,2.5-3.6,3.3c-1.6,0.8-3.4,1.2-5.4,1.2h-8.5V78.3h8.5c2,0,3.8,0.4,5.4,1.2
	C386.2,80.3,387.5,81.4,388.3,82.8z M385.2,87.7c0-1.8-0.6-3.2-1.7-4.3c-1.1-1-2.6-1.6-4.5-1.6h-4v11.6h4c1.9,0,3.4-0.5,4.5-1.6
	C384.7,90.9,385.2,89.5,385.2,87.7z M392.9,97.1h4.3V78.3h-4.3V97.1z M421,87.7c0,1.8-0.4,3.5-1.3,5s-2.1,2.6-3.7,3.5
	c-1.6,0.8-3.3,1.3-5.3,1.3c-1.9,0-3.7-0.4-5.3-1.3c-1.6-0.8-2.8-2-3.7-3.5c-0.9-1.5-1.3-3.1-1.3-5c0-1.8,0.4-3.5,1.3-5
	s2.1-2.6,3.7-3.5c1.6-0.8,3.3-1.3,5.3-1.3c1.9,0,3.7,0.4,5.3,1.3c1.6,0.8,2.8,2,3.7,3.5C420.6,84.2,421,85.9,421,87.7z M416.6,87.7
	c0-1.2-0.3-2.2-0.8-3.1s-1.2-1.6-2.1-2.1s-1.9-0.8-3-0.8s-2.1,0.3-3,0.8s-1.6,1.2-2.1,2.1s-0.8,2-0.8,3.1c0,1.2,0.3,2.2,0.8,3.1
	s1.2,1.6,2.1,2.1s1.9,0.8,3,0.8s2.1-0.3,3-0.8s1.6-1.2,2.1-2.1C416.4,89.9,416.6,88.9,416.6,87.7z"/>
<path id="txt1" class="st0" d="M160.9,10.5h19.8v32.8c0,8.9-2.6,15.9-7.7,20.8c-5.1,4.9-12.3,7.4-21.4,7.4c-9.2,0-16.3-2.5-21.4-7.4
	c-5.1-4.9-7.7-11.9-7.7-20.8V10.5h20.1v32.2c0,4.4,0.8,7.6,2.3,9.5c1.6,2,3.8,3,6.8,3s5.2-1,6.8-3s2.3-5.2,2.3-9.5L160.9,10.5
	L160.9,10.5z M210,10.5h-20.1v59.7H237V54.6h-27V10.5z M232.5,26.1H250v44.1h20.1V26.1h17.5V10.5h-55.1V26.1z M421.8,70.2H401
	l-4-10.4h-22.7l-4,10.4H350h-0.2h-21.3l-10.1-15h-5.5v15h-20.1V10.5h28.7c5.5,0,10.3,0.9,14.4,2.7s7.2,4.4,9.5,7.8
	c2.2,3.4,3.3,7.4,3.3,11.9c0,4.3-1,8-2.9,11.2s-4.7,5.7-8.4,7.6L349.8,70l26-59.5h19.8L421.8,70.2z M328.4,33.1c0-2.2-0.7-3.9-2-5.2
	c-1.4-1.2-3.4-1.8-6.1-1.8H313v14h7.3c2.7,0,4.8-0.6,6.1-1.8C327.7,37,328.4,35.3,328.4,33.1z M391.4,45.3l-5.8-15l-5.8,15H391.4z"
	/>
<path id="u" class="st0" d="M0,0v108h108V0H0z M96.9,57.2h-0.1c0,12.4-3.8,22.1-11.3,29C78,93.1,67.5,96.5,54,96.5
	s-24-3.4-31.5-10.3c-7.5-6.9-11.3-16.6-11.3-29V11.4h29.6v44.9c0,6.1,1.1,10.5,3.5,13.3c2.3,2.8,5.6,4.2,10,4.2
	c4.4,0,7.7-1.4,10-4.2c2.3-2.8,3.5-7.2,3.5-13.3V11.4h29.1V57.2z"/>
</svg>
